<svg width="32" height="32" viewBox="0 0 32 32" fill="none" xmlns="http://www.w3.org/2000/svg">
<path d="M18.1785 25.4286C18.6902 24.4053 19.4152 16.7508 20.2089 15.3978C20.2706 15.2927 20.3255 15.163 20.2237 15.096C19.589 14.6779 16.0457 15.0023 14.9616 15.8523C14.2172 16.4361 12.8949 16.3667 11.9504 16.1855C11.6218 16.1225 11.3046 16.3917 11.3459 16.7238C11.697 19.5428 12.2236 24.2989 12.6168 25.0625C13.3571 26.5 17.6428 26.5 18.1785 25.4286Z" fill="#FFDD00"/>
<path d="M19.1325 6.62993C17.2116 7.17876 12.5739 7.83736 9.39069 6.08109C5.41164 3.88575 20.463 3.27687 20.779 4.98342C21.4651 8.68806 20.779 4.98342 21.4651 8.68806M21.4651 8.68806C19.2271 9.12765 14.3004 9.78375 10.5293 9.35655C9.53398 9.24379 8.32342 9.37151 8.05708 10.3372C7.93326 10.7861 7.99084 11.3068 8.43023 11.8439C9.66511 13.3532 22.5627 12.5299 22.8371 11.8439M21.4651 8.68806C23.2488 8.68806 23.1116 11.1578 22.8371 11.8439M22.8371 11.8439C22.8371 11.8439 20.6829 13.6267 19.8085 24.343C19.7179 25.4535 19.1423 26.5071 18.0889 26.87C16.8746 27.2883 15.229 27.5676 13.421 27.2482C12.165 27.0264 11.3535 25.8822 11.1987 24.6162L9.93953 14.3136" stroke="currentColor" stroke-width="1.07143" stroke-linecap="round"/>
</svg>
