<svg width="161" height="37" viewBox="0 0 161 37" fill="none" xmlns="http://www.w3.org/2000/svg">
<path d="M24.5707 9.82102L7.56022 19.642L7.56022 0L24.5707 9.82102Z" fill="#FE0000"/>
<path d="M0 28.5979L27.915 12.4671L41.1459 20.2105L13.2309 36.3413L0 28.5979Z" fill="#FE0000"/>
<path d="M62.4701 10.199H66.4347L61.2061 24.5635C60.4591 26.6319 59.4632 28.1258 58.2183 29.0452C56.9925 29.9836 55.4603 30.405 53.6217 30.3092V26.8618C54.6176 26.8809 55.4028 26.6702 55.9774 26.2297C56.5711 25.7892 57.0404 25.0806 57.3851 24.1038L51.4957 10.199H55.5465L59.2812 19.8519L62.4701 10.199Z" fill="black"/>
<path d="M79.8758 22.7823C78.401 24.2379 76.6007 24.9657 74.4748 24.9657C72.3488 24.9657 70.5485 24.2379 69.0737 22.7823C67.6181 21.3075 66.8903 19.5072 66.8903 17.3812C66.8903 15.2553 67.6181 13.4645 69.0737 12.009C70.5485 10.5342 72.3488 9.79683 74.4748 9.79683C76.6007 9.79683 78.401 10.5342 79.8758 12.009C81.3505 13.4645 82.0879 15.2553 82.0879 17.3812C82.0879 19.5072 81.3505 21.3075 79.8758 22.7823ZM71.6881 20.2254C72.435 20.9724 73.3639 21.3458 74.4748 21.3458C75.5856 21.3458 76.5145 20.9724 77.2615 20.2254C78.0084 19.4785 78.3819 18.5304 78.3819 17.3812C78.3819 16.2321 78.0084 15.284 77.2615 14.5371C76.5145 13.7901 75.5856 13.4167 74.4748 13.4167C73.3639 13.4167 72.435 13.7901 71.6881 14.5371C70.9603 15.284 70.5964 16.2321 70.5964 17.3812C70.5964 18.5304 70.9603 19.4785 71.6881 20.2254Z" fill="black"/>
<path d="M94.1756 10.199H97.8816V24.5635H94.1756V22.9546C93.2754 24.2953 91.8485 24.9657 89.895 24.9657C88.3245 24.9657 87.0221 24.439 85.9878 23.3856C84.9728 22.3322 84.4652 20.8766 84.4652 19.0188V10.199H88.1712V18.5591C88.1712 19.5168 88.4298 20.2541 88.9469 20.7713C89.464 21.2692 90.1535 21.5182 91.0154 21.5182C91.973 21.5182 92.7391 21.2213 93.3137 20.6276C93.8883 20.0339 94.1756 19.1433 94.1756 17.9558V10.199Z" fill="black"/>
<path d="M109.492 13.7614H106.246V19.737C106.246 20.235 106.37 20.5989 106.619 20.8287C106.868 21.0585 107.232 21.1926 107.711 21.2309C108.19 21.2501 108.784 21.2405 109.492 21.2022V24.5635C106.945 24.8508 105.145 24.6113 104.091 23.8452C103.057 23.0791 102.54 21.7097 102.54 19.737V13.7614H100.041V10.199H102.54V7.29742L106.246 6.17699V10.199H109.492V13.7614Z" fill="black"/>
<path d="M121.81 10.199H125.516V24.5635H121.81V22.9546C120.91 24.2953 119.483 24.9657 117.53 24.9657C115.959 24.9657 114.657 24.439 113.623 23.3856C112.607 22.3322 112.1 20.8766 112.1 19.0188V10.199H115.806V18.5591C115.806 19.5168 116.064 20.2541 116.582 20.7713C117.099 21.2692 117.788 21.5182 118.65 21.5182C119.608 21.5182 120.374 21.2213 120.948 20.6276C121.523 20.0339 121.81 19.1433 121.81 17.9558V10.199Z" fill="black"/>
<path d="M137.271 9.79683C139.205 9.79683 140.852 10.5342 142.212 12.009C143.591 13.4645 144.28 15.2553 144.28 17.3812C144.28 19.5072 143.591 21.3075 142.212 22.7823C140.852 24.2379 139.205 24.9657 137.271 24.9657C135.26 24.9657 133.708 24.2666 132.617 22.8685V24.5635H128.911V4.45326H132.617V11.894C133.708 10.4959 135.26 9.79683 137.271 9.79683ZM133.737 20.3116C134.484 21.0585 135.432 21.432 136.581 21.432C137.73 21.432 138.678 21.0585 139.425 20.3116C140.191 19.5455 140.574 18.5687 140.574 17.3812C140.574 16.1938 140.191 15.2266 139.425 14.4796C138.678 13.7135 137.73 13.3305 136.581 13.3305C135.432 13.3305 134.484 13.7135 133.737 14.4796C132.99 15.2266 132.617 16.1938 132.617 17.3812C132.617 18.5687 132.99 19.5455 133.737 20.3116Z" fill="black"/>
<path d="M150.026 18.9039C150.524 20.7042 151.874 21.6044 154.076 21.6044C155.494 21.6044 156.566 21.1256 157.294 20.1679L160.282 21.8917C158.864 23.941 156.777 24.9657 154.019 24.9657C151.644 24.9657 149.738 24.2474 148.302 22.811C146.865 21.3746 146.147 19.5646 146.147 17.3812C146.147 15.217 146.856 13.4167 148.273 11.9802C149.69 10.5246 151.51 9.79683 153.732 9.79683C155.838 9.79683 157.572 10.5246 158.932 11.9802C160.311 13.4358 161 15.2362 161 17.3812C161 17.8601 160.952 18.3676 160.856 18.9039H150.026ZM149.968 16.031H157.294C157.083 15.0542 156.643 14.3264 155.972 13.8476C155.321 13.3688 154.574 13.1294 153.732 13.1294C152.736 13.1294 151.912 13.3879 151.261 13.9051C150.61 14.403 150.179 15.1117 149.968 16.031Z" fill="black"/>
</svg>
